<svg id="Ebene_1" xmlns="http://www.w3.org/2000/svg" viewBox="0 0 36 36" width="36" height="36"><style>.st0{fill:#4b647b}.f1{font:bold 26px sans-serif}</style><path vector-effect="non-scaling-stroke" class="st0" d="M19.7.6c3.6.4 6.9 1.8 9.6 4.1.5.4 1.6 1.5 2 2 2.1 2.5 3.5 5.5 4 8.7.1 1 .2 1.5.2 2.6 0 1.4-.1 2.3-.3 3.5-.6 2.9-1.9 5.6-3.8 7.9-.4.5-1.5 1.6-2 2-2.5 2.1-5.6 3.5-8.8 4-1 .1-1.4.2-2.6.2-1.2 0-1.6 0-2.6-.2-3.2-.5-6.2-1.8-8.8-4-.5-.4-1.6-1.5-2-2.1-2.1-2.5-3.5-5.5-4-8.7-.1-.9-.2-1.5-.2-2.6s0-1.7.2-2.6c.4-3.2 1.7-6.1 3.8-8.6.7-.9 2.1-2.1 3-2.8 2.8-2 6-3.2 9.5-3.4.6-.1 2.2-.1 2.8 0zm-8 4.5C10 5.9 8.6 7 7.3 8.3 4.2 11.7 2.9 16.4 3.8 21c.5 2.2 1.4 4.3 2.9 6.1 2.8 3.5 7.1 5.5 11.6 5.4.7 0 1.1 0 1.8-.1 3-.4 5.8-1.9 8-4.1 1.2-1.2 2-2.3 2.7-3.8.9-1.9 1.4-3.9 1.5-6 .1-3.9-1.4-7.7-4.2-10.5-2.5-2.5-5.7-4-9.2-4.2-2.5-.3-5 .2-7.2 1.3z"/>
<text x="11" y="28" class="f1 st0">?</text></svg>