<?xml version="1.0" encoding="utf-8"?>
<!-- Generator: Adobe Illustrator 16.0.4, SVG Export Plug-In . SVG Version: 6.00 Build 0)  -->
<!DOCTYPE svg PUBLIC "-//W3C//DTD SVG 1.1//EN" "http://www.w3.org/Graphics/SVG/1.1/DTD/svg11.dtd">
<svg version="1.1" id="Layer_1" xmlns="http://www.w3.org/2000/svg" xmlns:xlink="http://www.w3.org/1999/xlink" x="0px" y="0px"
     width="36px" height="55px" viewBox="0 0 36 55" enable-background="new 0 0 36 55" xml:space="preserve">
<g id="de">
	<g>
		<path fill="#697D91" d="M26.854,27.228c-0.01-0.004-0.146-0.048-0.146-0.224c0-0.097,0.057-0.172,0.134-0.22
			c3.989-2.503,6.456-7.12,6.456-12.441C33.297,6.42,26.874,0,18.955,0H1.992c-1.1,0-1.991,0.89-1.991,1.991v51.017
			c0,1.098,0.892,1.989,1.991,1.989L20.934,55c7.92,0,14.346-6.421,14.346-14.346C35.277,34.518,32.029,29.232,26.854,27.228z
			 M19.35,44.789c0,0.253-0.215,0.471-0.469,0.471h-0.722c-0.253,0-0.469-0.218-0.469-0.471v-4.943h-4.478v4.943
			c0,0.253-0.217,0.471-0.469,0.471h-0.724c-0.253,0-0.47-0.218-0.47-0.471v-11.5c0-0.253,0.217-0.469,0.47-0.469h0.724
			c0.252,0,0.469,0.216,0.469,0.469v5.096h4.478v-5.096c0-0.253,0.216-0.469,0.469-0.469h0.722c0.253,0,0.469,0.216,0.469,0.469
			V44.789z M19.359,10.648c0,0.252-0.215,0.47-0.469,0.47h-5.728v3.998h4.878c0.252,0,0.469,0.218,0.469,0.471v0.487
			c0,0.252-0.216,0.47-0.469,0.47h-4.878v5.12c0,0.253-0.217,0.473-0.47,0.473h-0.722c-0.252,0-0.472-0.219-0.472-0.473V10.161
			c0-0.253,0.218-0.47,0.472-0.47h6.917c0.252,0,0.471,0.217,0.471,0.47V10.648L19.359,10.648z"/>
        <path fill="#FAC300" d="M18.88,32.82h-0.722c-0.253,0-0.469,0.215-0.469,0.468v5.095h-4.478v-5.095
			c0-0.253-0.217-0.468-0.469-0.468h-0.724c-0.253,0-0.47,0.215-0.47,0.468v11.5c0,0.253,0.217,0.471,0.47,0.471h0.724
			c0.252,0,0.469-0.217,0.469-0.471v-4.942h4.478v4.942c0,0.253,0.216,0.471,0.469,0.471h0.722c0.253,0,0.47-0.217,0.47-0.471v-11.5
			C19.35,33.036,19.133,32.82,18.88,32.82z"/>
        <path fill="#FAC300" d="M18.891,9.692h-6.917c-0.252,0-0.472,0.216-0.472,0.47v11.501c0,0.253,0.219,0.473,0.472,0.473h0.722
			c0.253,0,0.47-0.219,0.47-0.473v-5.121h4.878c0.252,0,0.47-0.216,0.47-0.469v-0.487c0-0.253-0.217-0.471-0.47-0.471h-4.878v-3.999
			h5.727c0.252,0,0.471-0.216,0.471-0.47V10.16C19.359,9.908,19.143,9.692,18.891,9.692z"/>
	</g>
</g>
    <g id="Layer_2">
	<rect fill="none" width="52" height="80"/>
</g>
</svg>